<?xml version="1.0" standalone="no"?>
<!DOCTYPE svg PUBLIC "-//W3C//DTD SVG 20010904//EN"
 "http://www.w3.org/TR/2001/REC-SVG-20010904/DTD/svg10.dtd">
<svg version="1.0" xmlns="http://www.w3.org/2000/svg"
 width="348.000000pt" height="348.000000pt" viewBox="0 0 348.000000 348.000000"
 preserveAspectRatio="xMidYMid meet">
<metadata>
Created by potrace 1.14, written by Peter Selinger 2001-2017
</metadata>
<g transform="translate(0.000000,348.000000) scale(0.100000,-0.100000)"
fill="#000000" stroke="none">
<path d="M677 2114 c-11 -11 -175 -19 -352 -16 -130 1 -220 -2 -235 -8 -25
-10 -48 -45 -71 -105 -16 -44 -21 -103 -10 -110 6 -3 48 10 93 29 140 58 206
71 358 71 85 0 103 -4 170 -33 41 -17 80 -32 86 -32 26 0 91 151 78 183 -3 9
-13 19 -22 21 -17 6 -89 5 -95 0z"/>
<path d="M2534 2072 c-6 -4 -14 -33 -18 -64 -3 -32 -12 -77 -20 -100 -7 -24
-21 -70 -31 -103 -10 -33 -38 -115 -62 -182 l-45 -123 -68 -20 c-88 -26 -92
-26 -80 6 30 77 -2 121 -135 192 -65 34 -91 53 -93 68 -5 33 25 56 67 53 50
-4 88 -24 141 -74 40 -39 47 -42 63 -30 22 16 67 123 60 141 -14 36 -215 58
-365 39 -130 -17 -242 -73 -268 -134 -18 -44 -7 -98 26 -124 15 -12 52 -33 83
-47 85 -38 101 -51 101 -82 0 -33 -22 -46 -73 -42 -42 4 -81 22 -114 53 -25
24 -56 27 -75 8 -19 -19 -113 -49 -140 -45 -20 3 -23 8 -21 43 1 22 22 93 47
156 25 64 49 137 52 163 6 43 5 46 -17 47 -13 1 -40 2 -59 4 -19 1 -69 4 -110
6 -69 2 -76 1 -85 -19 -6 -15 -15 -20 -25 -16 -122 53 -242 46 -352 -19 -43
-25 -98 -79 -98 -96 0 -5 -4 -11 -10 -13 -5 -1 -19 -30 -31 -63 -27 -78 -23
-167 9 -212 57 -80 201 -100 314 -43 53 26 63 28 70 15 31 -53 175 -63 319
-21 48 14 91 26 95 28 5 1 25 -5 45 -14 94 -41 350 -53 499 -24 72 14 100 21
144 37 64 24 64 24 58 -7 -6 -34 6 -41 75 -38 32 1 89 3 126 3 45 1 69 5 72
14 2 6 15 55 30 107 14 52 30 99 35 104 5 5 20 6 33 2 35 -8 47 -49 33 -111
-6 -27 -11 -56 -10 -62 1 -7 2 -19 3 -27 4 -42 153 -51 277 -16 85 23 193 76
201 98 13 31 -15 34 -72 7 -32 -14 -72 -29 -90 -32 -40 -6 -48 9 -36 73 8 42
7 49 -15 70 -24 25 -26 26 -91 28 -54 3 -64 12 -22 21 54 12 167 75 199 111
34 39 48 80 31 97 -13 13 -220 10 -237 -4 -7 -5 -10 -18 -7 -28 6 -24 -19 -73
-55 -107 -27 -26 -110 -69 -118 -62 -2 3 16 63 40 135 48 142 75 251 69 271
-5 13 -249 18 -269 4z m-1293 -292 c53 -29 -5 -211 -87 -273 -30 -23 -90 -25
-111 -4 -26 26 -25 94 2 152 47 98 137 156 196 125z"/>
<path d="M345 1901 c-52 -24 -102 -73 -173 -169 -72 -97 -104 -170 -104 -235
0 -61 23 -95 77 -114 51 -18 239 -20 320 -3 78 15 162 56 168 81 6 24 -21 40
-54 33 -57 -12 -112 -6 -132 15 -40 39 -24 200 34 329 26 61 14 82 -49 82 -26
0 -65 -9 -87 -19z"/>
<path d="M3345 1576 c-40 -17 -56 -38 -62 -81 -6 -44 16 -82 60 -100 43 -18
77 -10 110 25 48 54 30 127 -39 156 -39 16 -32 16 -69 0z"/>
</g>
</svg>
